<?xml version="1.0" encoding="iso-8859-1"?>
<!-- Uploaded to: SVG Repo, www.svgrepo.com, Generator: SVG Repo Mixer Tools -->
<svg version="1.1" id="Layer_1" xmlns="http://www.w3.org/2000/svg" xmlns:xlink="http://www.w3.org/1999/xlink" 
	 viewBox="0 0 480.003 480.003" xml:space="preserve">
<polygon style="fill:#FDD4D8;" points="16.003,200.001 16.003,238.153 16.003,448.001 464.003,448.001 464.003,238.153 
	464.003,200.001 "/>
<polygon style="fill:#FCBCC2;" points="192.003,216.001 192.003,432.001 200.003,432.001 280.003,432.001 288.003,432.001 
	288.003,216.001 "/>
<g>
	<path style="fill:#F97985;" d="M456.003,432.001h-432c-13.232,0-24,10.768-24,24v24h480v-24
		C480.003,442.769,469.235,432.001,456.003,432.001z"/>
	<polygon style="fill:#F97985;" points="280.003,376.001 288.003,376.001 288.003,336.001 192.003,336.001 192.003,376.001 
		200.003,376.001 	"/>
	<path style="fill:#F97985;" d="M479.595,189.473l-16-48c-1.096-3.272-4.144-5.472-7.592-5.472h-432c-3.448,0-6.496,2.2-7.592,5.472
		l-16,48c-0.816,2.44-0.4,5.128,1.104,7.208s3.92,3.32,6.488,3.32h464c2.568,0,4.984-1.232,6.488-3.32
		S480.403,191.905,479.595,189.473z"/>
</g>
<g>
	<path style="fill:#F85766;" d="M456.003,0.001h-432c-13.232,0-24,10.768-24,24v24h480v-24
		C480.003,10.769,469.235,0.001,456.003,0.001z"/>
	<path style="fill:#F85766;" d="M0.003,104.001v24c0,13.232,10.768,24,24,24h432c13.232,0,24-10.768,24-24v-24H0.003z"/>
</g>
<rect x="0.003" y="40.001" style="fill:#F97985;" width="480" height="72"/>
<rect x="48.003" y="216.001" style="fill:#FCBCC2;" width="128" height="160"/>
<g>
	<rect x="48.003" y="360.001" style="fill:#F97985;" width="128" height="48"/>
	<path style="fill:#F97985;" d="M120.003,265.137v-41.136c0-4.424-3.584-8-8-8s-8,3.576-8,8v41.136
		c-13.76,3.576-24,15.992-24,30.864v8h64v-8C144.003,281.129,133.763,268.713,120.003,265.137z"/>
</g>
<rect x="304.003" y="216.001" style="fill:#FCBCC2;" width="128" height="160"/>
<g>
	<rect x="304.003" y="360.001" style="fill:#F97985;" width="128" height="48"/>
	<path style="fill:#F97985;" d="M392.003,296.001c0-13.28-10.72-24-24-24s-24,10.72-24,24H392.003z"/>
	<path style="fill:#F97985;" d="M376.003,265.137v-41.136c0-4.424-3.584-8-8-8s-8,3.576-8,8v41.136
		c-13.76,3.576-24,15.992-24,30.864v8h64v-8C400.003,281.129,389.763,268.713,376.003,265.137z"/>
</g>
<path style="fill:#FCBCC2;" d="M240.003,0.001c-52.936,0-96,43.064-96,96s43.064,96,96,96s96-43.064,96-96
	S292.939,0.001,240.003,0.001z"/>
<path style="fill:#F97985;" d="M279.363,64.849c-3.376-18.656-19.744-32.848-39.36-32.848s-35.984,14.192-39.36,32.848
	c-14.112,3.336-24.64,16.04-24.64,31.152c0,14.88,10.216,27.432,24,30.984v33.016h80v-33.016c13.784-3.552,24-16.104,24-30.984
	C304.003,80.889,293.475,68.185,279.363,64.849z"/>
</svg>